<svg width="48" height="48" viewBox="0 0 48 48" fill="none" xmlns="http://www.w3.org/2000/svg">
<path d="M28 4L12 4C10.9391 4 9.92172 4.42143 9.17157 5.17157C8.42143 5.92172 8 6.93913 8 8L8 40C8 41.0609 8.42143 42.0783 9.17157 42.8284C9.92172 43.5786 10.9391 44 12 44L36 44C37.0609 44 38.0783 43.5786 38.8284 42.8284C39.5786 42.0783 40 41.0609 40 40L40 16M28 4L40 16M28 4L28 16L40 16M32 26L16 26M32 34L16 34M20 18L16 18" stroke="#C2CFE0" stroke-width="4" stroke-linecap="round" stroke-linejoin="round"/>
</svg>
