<svg width="48" height="48" viewBox="0 0 48 48" fill="none" xmlns="http://www.w3.org/2000/svg">
<path d="M46 7.99917V19.9992M46 19.9992H34M46 19.9992L36.72 11.2792C34.5705 9.1286 31.9113 7.55759 28.9904 6.71272C26.0695 5.86786 22.9822 5.77668 20.0166 6.44769C17.0509 7.1187 14.3036 8.53004 12.0309 10.55C9.75827 12.57 8.03434 15.1327 7.02 17.9992M2 39.9992V27.9992M2 27.9992H14M2 27.9992L11.28 36.7192C13.4295 38.8697 16.0887 40.4408 19.0096 41.2856C21.9305 42.1305 25.0178 42.2217 27.9834 41.5507C30.9491 40.8796 33.6964 39.4683 35.9691 37.4483C38.2417 35.4284 39.9657 32.8656 40.98 29.9992" stroke="#1E1E1E" stroke-width="4" stroke-linecap="round" stroke-linejoin="round"/>
</svg>
