<svg width="55" height="55" viewBox="0 0 55 55" fill="none" xmlns="http://www.w3.org/2000/svg">
<path d="M6.875 13.7507H11.4583M11.4583 13.7507H48.125M11.4583 13.7507V45.834C11.4583 47.0496 11.9412 48.2153 12.8008 49.0749C13.6603 49.9344 14.8261 50.4173 16.0417 50.4173H38.9583C40.1739 50.4173 41.3397 49.9344 42.1992 49.0749C43.0588 48.2153 43.5417 47.0496 43.5417 45.834V13.7507M18.3333 13.7507V9.16732C18.3333 7.95174 18.8162 6.78595 19.6758 5.92641C20.5353 5.06687 21.7011 4.58398 22.9167 4.58398H32.0833C33.2989 4.58398 34.4647 5.06687 35.3242 5.92641C36.1838 6.78595 36.6667 7.95174 36.6667 9.16732V13.7507M22.9167 25.209V38.959M32.0833 25.209V38.959" stroke="#1E1E1E" stroke-width="4" stroke-linecap="round" stroke-linejoin="round"/>
</svg>
